<?xml version="1.0" encoding="UTF-8" standalone="no"?>
<!DOCTYPE svg PUBLIC "-//W3C//DTD SVG 1.1//EN"
 "http://www.w3.org/Graphics/SVG/1.1/DTD/svg11.dtd">
<!-- Generated by graphviz version 2.43.0 (0)
 -->
<!-- Title: %3 Pages: 1 -->
<svg width="694pt" height="260pt"
 viewBox="0.00 0.00 693.52 260.00" xmlns="http://www.w3.org/2000/svg" xmlns:xlink="http://www.w3.org/1999/xlink">
<g id="graph0" class="graph" transform="scale(1 1) rotate(0) translate(4 256)">
<title>%3</title>
<polygon fill="white" stroke="transparent" points="-4,4 -4,-256 689.52,-256 689.52,4 -4,4"/>
<!-- A -->
<g id="node1" class="node">
<title>A</title>
<ellipse fill="none" stroke="black" cx="369.18" cy="-234" rx="118.08" ry="18"/>
<text text-anchor="middle" x="369.18" y="-230.3" font-family="Times,serif" font-size="14.00">Publicación de Anuncio</text>
</g>
<!-- B -->
<g id="node2" class="node">
<title>B</title>
<ellipse fill="none" stroke="black" cx="369.18" cy="-162" rx="94.78" ry="18"/>
<text text-anchor="middle" x="369.18" y="-158.3" font-family="Times,serif" font-size="14.00">¿Tipo de Anuncio?</text>
</g>
<!-- A&#45;&gt;B -->
<g id="edge1" class="edge">
<title>A&#45;&gt;B</title>
<path fill="none" stroke="black" d="M369.18,-215.7C369.18,-207.98 369.18,-198.71 369.18,-190.11"/>
<polygon fill="black" stroke="black" points="372.68,-190.1 369.18,-180.1 365.68,-190.1 372.68,-190.1"/>
</g>
<!-- C -->
<g id="node3" class="node">
<title>C</title>
<ellipse fill="none" stroke="black" cx="208.18" cy="-90" rx="133.78" ry="18"/>
<text text-anchor="middle" x="208.18" y="-86.3" font-family="Times,serif" font-size="14.00">Cliente solicita un servicio</text>
</g>
<!-- B&#45;&gt;C -->
<g id="edge2" class="edge">
<title>B&#45;&gt;C</title>
<path fill="none" stroke="black" d="M333.05,-145.29C310.03,-135.28 279.98,-122.21 255.12,-111.41"/>
<polygon fill="black" stroke="black" points="256.44,-108.16 245.87,-107.39 253.65,-114.58 256.44,-108.16"/>
</g>
<!-- D -->
<g id="node4" class="node">
<title>D</title>
<ellipse fill="none" stroke="black" cx="530.18" cy="-90" rx="155.17" ry="18"/>
<text text-anchor="middle" x="530.18" y="-86.3" font-family="Times,serif" font-size="14.00">Proveedor ofrece un bien único</text>
</g>
<!-- B&#45;&gt;D -->
<g id="edge3" class="edge">
<title>B&#45;&gt;D</title>
<path fill="none" stroke="black" d="M405.31,-145.29C428.25,-135.32 458.17,-122.31 482.98,-111.52"/>
<polygon fill="black" stroke="black" points="484.43,-114.71 492.21,-107.51 481.64,-108.29 484.43,-114.71"/>
</g>
<!-- E -->
<g id="node5" class="node">
<title>E</title>
<ellipse fill="none" stroke="black" cx="200.18" cy="-18" rx="200.36" ry="18"/>
<text text-anchor="middle" x="200.18" y="-14.3" font-family="Times,serif" font-size="14.00">Aplicar Subasta Descendente Inteligente</text>
</g>
<!-- C&#45;&gt;E -->
<g id="edge4" class="edge">
<title>C&#45;&gt;E</title>
<path fill="none" stroke="black" d="M206.2,-71.7C205.32,-63.98 204.26,-54.71 203.28,-46.11"/>
<polygon fill="black" stroke="black" points="206.75,-45.64 202.14,-36.1 199.8,-46.44 206.75,-45.64"/>
</g>
<!-- F -->
<g id="node6" class="node">
<title>F</title>
<ellipse fill="none" stroke="black" cx="538.18" cy="-18" rx="120.48" ry="18"/>
<text text-anchor="middle" x="538.18" y="-14.3" font-family="Times,serif" font-size="14.00">Aplicar Subasta Inglesa</text>
</g>
<!-- D&#45;&gt;F -->
<g id="edge5" class="edge">
<title>D&#45;&gt;F</title>
<path fill="none" stroke="black" d="M532.16,-71.7C533.04,-63.98 534.1,-54.71 535.08,-46.11"/>
<polygon fill="black" stroke="black" points="538.57,-46.44 536.23,-36.1 531.61,-45.64 538.57,-46.44"/>
</g>
</g>
</svg>
